HIERARCHY
ROOT Hips
{
 OFFSET 0.000000 0.000000 0.000000
 CHANNELS 6 Xposition Yposition Zposition Yrotation Xrotation Zrotation
 JOINT Chest
 {
  OFFSET 0.000000 9.588913 -0.003946
  CHANNELS 3 Yrotation Xrotation Zrotation
  JOINT Chest2
  {
   OFFSET 0.000000 9.541882 0.008053
   CHANNELS 3 Yrotation Xrotation Zrotation
   JOINT Chest3
   {
    OFFSET 0.000000 9.501360 0.000000
    CHANNELS 3 Yrotation Xrotation Zrotation
    JOINT Chest4
    {
     OFFSET 0.000000 9.491660 0.000000
     CHANNELS 3 Yrotation Xrotation Zrotation
     JOINT Neck
     {
      OFFSET 0.000000 14.331917 0.000000
      CHANNELS 3 Yrotation Xrotation Zrotation
      JOINT Head
      {
       OFFSET 0.000000 8.884799 0.017034
       CHANNELS 3 Yrotation Xrotation Zrotation
       End Site
       {
        OFFSET 0.000000 16.896195 0.008993
       }
      }
     }
     JOINT RightCollar
     {
      OFFSET -2.923010 9.499495 0.000000
      CHANNELS 3 Yrotation Xrotation Zrotation
      JOINT RightShoulder
      {
       OFFSET -13.795216 0.000000 0.000000
       CHANNELS 3 Yrotation Xrotation Zrotation
       JOINT RightElbow
       {
        OFFSET -30.272209 0.000000 0.000000
        CHANNELS 3 Yrotation Xrotation Zrotation
        JOINT RightWrist
        {
         OFFSET -24.478199 0.000000 0.000000
         CHANNELS 3 Yrotation Xrotation Zrotation
         End Site
         {
          OFFSET -18.090752 0.000000 0.000000
         }
        }
       }
      }
     }
     JOINT LeftCollar
     {
      OFFSET 2.923010 9.499495 0.000000
      CHANNELS 3 Yrotation Xrotation Zrotation
      JOINT LeftShoulder
      {
       OFFSET 13.795216 0.000000 0.000000
       CHANNELS 3 Yrotation Xrotation Zrotation
       JOINT LeftElbow
       {
        OFFSET 30.272209 0.000000 0.000000
        CHANNELS 3 Yrotation Xrotation Zrotation
        JOINT LeftWrist
        {
         OFFSET 24.478199 0.000000 0.000000
         CHANNELS 3 Yrotation Xrotation Zrotation
         End Site
         {
          OFFSET 18.090752 0.000000 0.000000
         }
        }
       }
      }
     }
    }
   }
  }
 }
 JOINT RightHip
 {
  OFFSET -7.826875 0.019532 0.001973
  CHANNELS 3 Yrotation Xrotation Zrotation
  JOINT RightKnee
  {
   OFFSET 0.000000 -40.546152 -0.001885
   CHANNELS 3 Yrotation Xrotation Zrotation
   JOINT RightAnkle
   {
    OFFSET 0.000000 -39.417092 -0.003189
    CHANNELS 3 Yrotation Xrotation Zrotation
    JOINT RightToe
    {
     OFFSET 0.000000 -7.579396 17.243563
     CHANNELS 3 Yrotation Xrotation Zrotation
     End Site
     {
      OFFSET 0.000000 -1.500329 6.694466
     }
    }
   }
  }
 }
 JOINT LeftHip
 {
  OFFSET 7.826875 0.019532 0.001973
  CHANNELS 3 Yrotation Xrotation Zrotation
  JOINT LeftKnee
  {
   OFFSET 0.000000 -40.546152 -0.001885
   CHANNELS 3 Yrotation Xrotation Zrotation
   JOINT LeftAnkle
   {
    OFFSET 0.000000 -39.417092 -0.003189
    CHANNELS 3 Yrotation Xrotation Zrotation
    JOINT LeftToe
    {
     OFFSET 0.000000 -7.579396 17.243563
     CHANNELS 3 Yrotation Xrotation Zrotation
     End Site
     {
      OFFSET 0.000000 -1.500329 6.694466
     }
    }
   }
  }
 }
}
MOTION
Frames: 10
Frame Time: 0.008333
0.000000 87.345680 0.000000 0.000000 -5.767889 0.000000 0.000000 11.653876 0.000000 0.000000 -5.885988 0.000000 0.000000 -0.000000 0.000000 0.000000 -0.000000 0.000000 0.000000 12.528808 0.000000 0.000000 0.711711 0.000000 0.000000 -0.000000 0.000000 0.000000 -0.000000 0.000000 2.309063 -0.000000 0.000000 -2.309063 -0.000000 -0.000000 0.000000 -0.000000 0.000000 0.000000 0.000000 0.000000 -2.309063 0.000000 0.000000 2.309063 -0.000000 0.000000 0.000000 8.520374 0.000000 0.000000 1.905768 0.000000 -0.000000 -4.658254 0.000000 0.000000 -0.000000 0.000000 0.000000 8.520374 0.000000 0.000000 1.905768 0.000000 -0.000000 -4.658254 0.000000 0.000000 -0.000000 0.000000
-24.360084 87.877124 -1.331856 -141.430432 -7.815005 -1.582698 2.801981 1.645720 -2.140143 1.596764 0.925352 -1.145973 1.993103 1.161638 -1.428449 1.596764 0.925352 -1.145973 -1.754123 30.162221 7.026227 -3.554486 8.454269 8.300492 4.829116 -9.363644 -9.172568 -15.639153 -46.078041 43.052707 106.665980 -15.365807 3.624867 24.923696 -12.206896 -2.658585 -1.102323 0.958449 1.976104 4.880695 0.226835 -85.486540 0.477683 -1.144193 0.814558 -1.202060 2.916712 1.024614 -7.160136 14.159435 -8.567501 -2.602991 1.298396 -1.351295 1.256584 -6.765090 7.743677 0.042416 -0.213590 0.020281 20.289300 13.681906 13.488770 13.042345 -2.845603 -0.721007 -1.637999 -3.075004 -9.893551 0.007139 0.194257 0.007535
-24.356165 87.875544 -1.342787 -141.411534 -7.797688 -1.590460 2.810675 1.638130 -2.155159 1.601630 0.919567 -1.155444 1.999179 1.154463 -1.440300 1.601630 0.919567 -1.155444 -1.763609 30.177156 7.044273 -3.569343 8.476960 8.323958 4.837483 -9.393755 -9.174642 -15.695328 -46.205516 43.010435 107.177102 -15.381509 3.493504 25.253105 -12.288245 -2.908634 -1.090645 0.955962 1.993289 4.899826 0.258426 -85.483198 0.490983 -1.188455 0.826743 -1.238700 2.864522 1.044722 -7.186364 14.155121 -8.551688 -2.610993 1.288521 -1.356258 1.263486 -6.768641 7.739739 0.044198 -0.209654 0.019764 20.283997 13.661648 13.494228 13.050941 -2.847877 -0.718598 -1.646757 -3.072431 -9.901321 0.009337 0.199567 0.007213
-24.352286 87.873839 -1.356274 -141.393127 -7.784152 -1.597680 2.821056 1.632973 -2.170210 1.607294 0.915657 -1.164927 2.006247 1.149634 -1.452156 1.607294 0.915657 -1.164927 -1.775109 30.186457 7.064694 -3.587020 8.492483 8.350488 4.845344 -9.428485 -9.178382 -15.775829 -46.295170 42.986984 107.712467 -15.405697 3.351055 25.526723 -12.362780 -3.104955 -1.081092 0.951072 2.009783 4.924538 0.281205 -85.481258 0.503270 -1.231850 0.837895 -1.271892 2.819056 1.065634 -7.210406 14.155752 -8.535525 -2.615149 1.280219 -1.361427 1.265519 -6.774847 7.736438 0.045546 -0.205977 0.018439 20.276390 13.645163 13.503167 13.057975 -2.846285 -0.718925 -1.651119 -3.071277 -9.909073 0.011032 0.203350 0.007048
-24.348181 87.872062 -1.371844 -141.376573 -7.773795 -1.605922 2.834336 1.629437 -2.184748 1.614509 0.912964 -1.173751 2.015252 1.146330 -1.463180 1.614509 0.912964 -1.173751 -1.789749 30.191197 7.088018 -3.608911 8.502417 8.380992 4.844930 -9.457612 -9.182333 -15.884300 -46.375812 43.003952 108.254858 -15.398829 3.210753 25.761680 -12.430257 -3.265417 -1.076499 0.946267 2.024636 4.952606 0.295597 -85.480518 0.511587 -1.271023 0.846934 -1.299630 2.781344 1.086821 -7.226349 14.160467 -8.516317 -2.617663 1.274273 -1.367093 1.262880 -6.783130 7.733566 0.045931 -0.203176 0.016733 20.268387 13.632171 13.516037 13.062370 -2.843556 -0.719862 -1.652089 -3.070344 -9.917386 0.012871 0.205814 0.006527
-24.344042 87.870312 -1.389205 -141.362465 -7.768551 -1.615813 2.850103 1.626499 -2.198636 1.622998 0.910818 -1.181714 2.025849 1.143710 -1.473120 1.622998 0.910819 -1.181714 -1.806493 30.194276 7.113425 -3.633662 8.510506 8.414363 4.825782 -9.476495 -9.183533 -15.998184 -46.451735 43.058717 108.801131 -15.347555 3.069015 25.977528 -12.486823 -3.412123 -1.074914 0.943127 2.038704 4.985331 0.305679 -85.476482 0.512922 -1.297965 0.852085 -1.318383 2.750958 1.104582 -7.237697 14.170941 -8.494772 -2.618903 1.269406 -1.373200 1.259680 -6.792305 7.730906 0.045553 -0.201610 0.014879 20.259156 13.624833 13.533703 13.067364 -2.839813 -0.721628 -1.651252 -3.069641 -9.927107 0.014899 0.207127 0.006568
-24.340519 87.868688 -1.408022 -141.351375 -7.771376 -1.625705 2.867760 1.623692 -2.212129 1.632460 0.909110 -1.189469 2.037663 1.141639 -1.482798 1.632460 0.909110 -1.189469 -1.824025 30.197315 7.139033 -3.659352 8.518635 8.448165 4.785193 -9.485517 -9.178530 -16.108181 -46.515849 43.143796 109.357619 -15.260058 2.927927 26.187342 -12.525437 -3.563488 -1.074957 0.947324 2.054941 5.023398 0.308077 -85.467807 0.510166 -1.307077 0.852713 -1.328739 2.728688 1.119230 -7.247405 14.189824 -8.474543 -2.620569 1.264773 -1.378037 1.258751 -6.802094 7.726611 0.045441 -0.200923 0.013878 20.248939 13.627341 13.555054 13.074265 -2.836128 -0.724821 -1.648365 -3.068187 -9.937463 0.016600 0.206852 0.007113
-24.337723 87.867122 -1.427220 -141.342990 -7.778968 -1.633611 2.885606 1.620161 -2.225082 1.642000 0.907257 -1.197445 2.049574 1.139389 -1.492753 1.642000 0.907258 -1.197445 -1.841748 30.200740 7.161175 -3.684463 8.526930 8.478038 4.734258 -9.487722 -9.170187 -16.232766 -46.564435 43.263010 109.924235 -15.151455 2.804670 26.400386 -12.547509 -3.731766 -1.074501 0.961041 2.071367 5.062309 0.299595 -85.456101 0.507750 -1.305400 0.852428 -1.334582 2.719898 1.130022 -7.253432 14.213007 -8.457773 -2.625752 1.261391 -1.380353 1.260764 -6.813204 7.719886 0.045583 -0.200279 0.014107 20.241105 13.636651 13.575915 13.082090 -2.834608 -0.727549 -1.646792 -3.064838 -9.947339 0.017712 0.205091 0.006995
-24.335183 87.865514 -1.445876 -141.338434 -7.785990 -1.640254 2.902079 1.615575 -2.237346 1.650924 0.904832 -1.204905 2.060718 1.136420 -1.502066 1.650924 0.904832 -1.204905 -1.858365 30.204358 7.177276 -3.706939 8.534747 8.500696 4.688821 -9.488293 -9.164273 -16.395161 -46.599025 43.420287 110.492327 -15.044247 2.709747 26.628480 -12.563061 -3.907899 -1.069739 0.976987 2.083574 5.099552 0.286277 -85.441446 0.503721 -1.295352 0.851725 -1.335117 2.724617 1.138057 -7.253865 14.233730 -8.441558 -2.634448 1.260689 -1.383205 1.265816 -6.825839 7.713027 0.044982 -0.199357 0.014827 20.238885 13.646912 13.595331 13.090791 -2.836351 -0.729889 -1.648689 -3.059390 -9.956705 0.018064 0.202628 0.006546
-24.332634 87.863837 -1.463600 -141.336428 -7.789902 -1.647285 2.916025 1.609891 -2.248796 1.658516 0.901623 -1.211239 2.070203 1.132462 -1.509977 1.658516 0.901623 -1.211239 -1.872057 30.208070 7.186862 -3.724612 8.541769 8.515146 4.655069 -9.488782 -9.160244 -16.596434 -46.622388 43.607943 111.054717 -14.948889 2.638022 26.877951 -12.577277 -4.071113 -1.057074 0.991179 2.091709 5.137180 0.272889 -85.423020 0.496901 -1.270106 0.847999 -1.331799 2.734502 1.145565 -7.253254 14.248954 -8.423470 -2.642268 1.262478 -1.389293 1.271842 -6.839345 7.708228 0.043822 -0.198464 0.015234 20.241058 13.655808 13.613711 13.099396 -2.843107 -0.732362 -1.651887 -3.051106 -9.966476 0.018355 0.200309 0.006964
